<?xml version="1.0" encoding="utf-8"?>
<!-- Generator: Adobe Illustrator 26.3.1, SVG Export Plug-In . SVG Version: 6.00 Build 0)  -->
<svg version="1.1" xmlns="http://www.w3.org/2000/svg" xmlns:xlink="http://www.w3.org/1999/xlink" x="0px" y="0px"
	 viewBox="0 0 336.5 178.75" style="enable-background:new 0 0 336.5 178.75;" xml:space="preserve">
<style type="text/css">
	.st0{display:none;}
	.st1{display:inline;fill:none;stroke:#000000;stroke-miterlimit:11.3386;}
	.st2{display:inline;fill:none;stroke:#FF0000;stroke-width:0.25;stroke-linejoin:round;stroke-miterlimit:10;}
	.st3{display:inline;fill:none;stroke:#00A651;stroke-width:0.25;stroke-linejoin:round;stroke-miterlimit:10;}
	.st4{display:inline;}
	.st5{fill:none;stroke:#00A651;stroke-width:0.25;stroke-linejoin:round;stroke-miterlimit:10;}
	.st6{display:inline;fill:none;stroke:#231F20;stroke-width:0.25;stroke-linejoin:round;stroke-miterlimit:10;}
	.st7{display:inline;fill:none;stroke:#000000;stroke-width:0.01;stroke-linejoin:round;stroke-miterlimit:10;}
	.st8{fill:none;stroke:#231F20;stroke-linejoin:round;stroke-miterlimit:10;}
	.st9{fill:none;stroke:#000000;stroke-linejoin:round;stroke-miterlimit:10;}
</style>
<g id="Design_work" class="st0">
	<rect x="57.83" y="80" class="st1" width="226.77" height="61.71"/>
	<rect x="311.95" y="89.31" class="st2" width="8.27" height="43.09"/>
	<rect x="423.99" y="89.31" class="st2" width="8.27" height="43.09"/>
	<rect x="332.11" y="89.31" class="st3" width="9.07" height="9.07"/>
	<rect x="332.11" y="123.33" class="st3" width="9.07" height="9.07"/>
	<circle class="st3" cx="336.65" cy="110.86" r="3.69"/>
	<g class="st4">
		<rect x="503.2" y="89.31" class="st5" width="9.07" height="9.07"/>
		<rect x="503.2" y="123.33" class="st5" width="9.07" height="9.07"/>
		<circle class="st5" cx="507.74" cy="110.86" r="3.69"/>
	</g>
	<rect x="284.6" y="89.6" class="st6" width="8.5" height="42.52"/>
	<rect x="293.1" y="89.6" class="st6" width="8.5" height="8.5"/>
	<rect x="293.1" y="123.61" class="st6" width="8.5" height="8.5"/>
	<rect x="236.41" y="108.66" class="st6" width="56.69" height="4.39"/>
	
		<rect x="254.41" y="108.73" transform="matrix(-1.836970e-16 1 -1 -1.836970e-16 370.6494 -148.9391)" class="st6" width="10.77" height="4.25"/>
	<rect x="392.69" y="54.16" class="st7" width="70.87" height="113.39"/>
	<rect x="472.3" y="54.16" class="st7" width="70.87" height="113.39"/>
</g>
<g id="Laser_Cut">
	<polygon class="st8" points="143.22,45.85 134.71,45.85 126.21,45.85 126.21,36.25 34.77,36.25 34.77,97.96 126.21,97.96 
		126.21,88.36 134.71,88.36 143.22,88.36 143.22,79.86 134.71,79.86 134.71,69.3 103.53,69.3 103.53,72.49 99.28,72.49 99.28,69.3 
		78.02,69.3 78.02,64.91 99.28,64.91 99.28,61.72 103.53,61.72 103.53,64.91 134.71,64.91 134.71,54.35 143.22,54.35 	"/>
	<g>
		<rect x="191.76" y="80.1" class="st9" width="8.27" height="43.09"/>
		<rect x="160.46" y="44.95" class="st9" width="70.87" height="113.39"/>
	</g>
	<g>
		<g>
			<rect x="270.97" y="80.1" class="st9" width="9.07" height="9.07"/>
			<rect x="270.97" y="114.12" class="st9" width="9.07" height="9.07"/>
			<circle class="st9" cx="275.5" cy="101.65" r="3.69"/>
		</g>
		<rect x="240.07" y="44.95" class="st9" width="70.87" height="113.39"/>
	</g>
</g>
</svg>
