<?xml version="1.0" encoding="utf-8"?>
<!-- Generator: Adobe Illustrator 26.3.1, SVG Export Plug-In . SVG Version: 6.00 Build 0)  -->
<svg version="1.1" xmlns="http://www.w3.org/2000/svg" xmlns:xlink="http://www.w3.org/1999/xlink" x="0px" y="0px"
	 viewBox="0 0 336.5 178.75" style="enable-background:new 0 0 336.5 178.75;" xml:space="preserve">
<style type="text/css">
	.st0{display:none;}
	.st1{display:inline;fill:none;stroke:#000000;stroke-miterlimit:11.3386;}
	.st2{display:inline;fill:none;stroke:#000000;stroke-width:0.01;stroke-linejoin:round;stroke-miterlimit:10;}
	.st3{display:inline;}
	.st4{fill:none;stroke:#00A651;stroke-width:0.25;stroke-linejoin:round;stroke-miterlimit:10;}
	.st5{display:inline;fill:none;stroke:#231F20;stroke-width:0.25;stroke-linejoin:round;stroke-miterlimit:10;}
	.st6{fill:none;stroke:#231F20;stroke-linejoin:round;stroke-miterlimit:10;}
</style>
<g id="Design_work" class="st0">
	<rect x="18.95" y="48.75" class="st1" width="68.58" height="61.71"/>
	<rect x="137.61" y="22.91" class="st2" width="70.87" height="113.39"/>
	<g class="st3">
		<circle class="st4" cx="173.04" cy="79.61" r="5.1"/>
		
			<rect x="168.79" y="89.53" transform="matrix(-1 -1.224647e-16 1.224647e-16 -1 346.0844 190.3913)" class="st4" width="8.5" height="11.34"/>
		
			<rect x="168.79" y="58.35" transform="matrix(-1 -1.224647e-16 1.224647e-16 -1 346.0844 128.0291)" class="st4" width="8.5" height="11.34"/>
	</g>
	<rect x="87.53" y="58.35" class="st5" width="8.5" height="11.34"/>
	<rect x="87.53" y="89.53" class="st5" width="8.5" height="11.34"/>
	<rect x="53.51" y="76.2" class="st5" width="34.02" height="6.8"/>
	
		<rect x="63.29" y="76.63" transform="matrix(6.123234e-17 -1 1 6.123234e-17 -8.8049 150.4053)" class="st5" width="15.02" height="5.95"/>
</g>
<g id="Laser_Cut">
	<rect x="137.61" y="22.91" class="st6" width="70.87" height="113.39"/>
	<g>
		<circle class="st6" cx="173.04" cy="79.61" r="5.1"/>
		
			<rect x="168.79" y="89.53" transform="matrix(-1 -1.224647e-16 1.224647e-16 -1 346.0844 190.3913)" class="st6" width="8.5" height="11.34"/>
		
			<rect x="168.79" y="58.35" transform="matrix(-1 -1.224647e-16 1.224647e-16 -1 346.0844 128.0291)" class="st6" width="8.5" height="11.34"/>
	</g>
	<polygon class="st6" points="87.53,76.2 87.53,69.68 96.03,69.68 96.03,58.35 87.53,58.35 87.53,48.75 18.95,48.75 18.95,110.46 
		87.53,110.46 87.53,100.86 96.03,100.86 96.03,89.53 87.53,89.53 87.53,83.01 73.78,83.01 73.78,87.12 67.82,87.12 67.82,83.01 
		53.51,83.01 53.51,76.2 67.82,76.2 67.82,72.09 73.78,72.09 73.78,76.2 	"/>
</g>
</svg>
